# xmcd CD database file
#
# Track frame offsets:
#	150
#	9516
#	63177
#	134336
#	163062
#	194474
#	241929
#
# Disc length: 4461 seconds
#
# Revision: 1
# Processed by: cddbd v1.5.2PL0 Copyright (c) Steve Scherf et al.
# Submitted via: CDex 1.72
#
DISCID=57116b07
DTITLE=Moon, Michael [CDN-98-Dance Of The Deep-New Age) - Dance of the Deep
DYEAR=1998
DGENRE=New Age
TTITLE0=Summoning
TTITLE1=Ripples Lap The shore Of Consciousness
TTITLE2=Entering The Mystery
TTITLE3=Surrender To Source
TTITLE4=In The Heart Of The Earth
TTITLE5=Crystal Cavern
TTITLE6=Dance Of The Deep
EXTD=YEAR: 1998
EXTT0=
EXTT1=
EXTT2=
EXTT3=
EXTT4=
EXTT5=
EXTT6=
PLAYORDER=
